<svg width="85" height="28" viewBox="30 0 85 28" fill="none" xmlns="http://www.w3.org/2000/svg">
<path fill-rule="evenodd" clip-rule="evenodd" d="M82.1698 2.06149V5.13873H85.6752V2.06149H82.1698ZM82.3036 7.30619V21.4337H85.5681V7.30619H82.3036ZM44.0608 2.70369H32.8564H32.8553L32.3202 11.8819L34.3003 13.1931C34.782 12.9619 35.3075 12.765 35.8791 12.6044C36.4496 12.4438 37.0736 12.3636 37.7522 12.3636C38.9295 12.3636 39.8693 12.6461 40.5747 13.2102C41.279 13.7743 41.6311 14.5043 41.6311 15.5072C41.6311 16.5101 41.2918 17.3075 40.6143 17.8983C39.9357 18.4892 39.0355 18.7846 37.9116 18.7846C37.0382 18.7846 36.2034 18.5844 35.4102 18.183C34.6171 17.7817 33.8454 17.2337 33.0962 16.5379L31.0625 18.9184C31.9541 19.7672 32.9624 20.4522 34.0862 20.9734C35.2101 21.4947 36.4945 21.7559 37.9395 21.7559C38.9734 21.7559 39.9196 21.6039 40.777 21.301C41.6343 20.9981 42.3696 20.5699 42.9808 20.0166C43.592 19.4643 44.064 18.7953 44.3969 18.0097C44.7298 17.2251 44.8957 16.3859 44.8957 15.3873C44.8957 14.3887 44.7298 13.5195 44.3969 12.7789C44.064 12.0393 43.6005 11.4238 43.0076 10.9325C42.4135 10.4423 41.7199 10.0762 40.9247 9.83541C40.1294 9.59352 39.2774 9.47364 38.3676 9.47364C37.7436 9.47364 37.2041 9.52394 36.7493 9.62134C36.2944 9.71875 35.8437 9.84826 35.3985 10.0088L35.6928 5.62039H44.0608V2.70369ZM61.0724 19.8142C61.6879 19.1817 62.1781 18.41 62.5442 17.5002H62.5452C62.9102 16.5904 63.0933 15.5468 63.0933 14.3694C63.0933 13.192 62.9059 12.1484 62.5324 11.2386C62.1588 10.3288 61.6643 9.55819 61.051 8.92454C60.4367 8.29197 59.7388 7.8146 58.9553 7.49349C58.1729 7.17239 57.3626 7.01184 56.5267 7.01184C55.3878 7.01184 54.4352 7.26551 53.6699 7.77392C52.9046 8.28234 52.2635 8.91063 51.7476 9.65987V7.30511H48.483V25.714H51.7476L51.7208 19.2384C52.2196 19.8988 52.8532 20.4789 53.6207 20.9777C54.3881 21.4765 55.3504 21.727 56.5106 21.727C57.3487 21.727 58.1643 21.5664 58.9585 21.2453C59.7527 20.9242 60.457 20.4479 61.0724 19.8142ZM58.6385 11.0524C59.0035 11.4441 59.2935 11.9215 59.5076 12.4834C59.7217 13.0454 59.8287 13.6737 59.8287 14.3694C59.8287 15.0651 59.7217 15.6934 59.5076 16.2553C59.2935 16.8173 59.0035 17.2947 58.6385 17.6864C58.2724 18.0792 57.8443 18.3821 57.3541 18.5962C56.8638 18.8103 56.3426 18.9173 55.7892 18.9173C55.2358 18.9173 54.7092 18.8103 54.2104 18.5962C53.7106 18.3821 53.2739 18.0749 52.8993 17.6736C52.5246 17.2722 52.226 16.7959 52.0034 16.2425C51.7808 15.6902 51.6694 15.0651 51.6694 14.3694C51.6694 13.6737 51.7797 13.0497 52.0034 12.4963C52.226 11.944 52.5246 11.4666 52.8993 11.0652C53.2739 10.6639 53.7106 10.3567 54.2104 10.1426C54.7092 9.92853 55.2369 9.8215 55.7892 9.8215C56.3415 9.8215 56.8628 9.92853 57.3541 10.1426C57.8443 10.3567 58.2724 10.6606 58.6385 11.0524ZM75.0529 21.4337V19.6944C74.5713 20.2659 73.9558 20.7476 73.2066 21.1394C72.4574 21.5311 71.5476 21.728 70.4772 21.728C69.7986 21.728 69.1564 21.6339 68.5506 21.4476C67.9437 21.2603 67.4139 20.9842 66.959 20.6181C66.5041 20.2531 66.138 19.7982 65.8619 19.2534C65.5847 18.7097 65.4466 18.0803 65.4466 17.3675V17.3139C65.4466 16.5476 65.5889 15.8786 65.8747 15.307C66.1594 14.7365 66.5565 14.2634 67.0649 13.8888C67.5734 13.5142 68.1792 13.2338 68.8845 13.0465C69.5888 12.8592 70.352 12.766 71.1719 12.766C71.9918 12.766 72.7549 12.8195 73.3522 12.9266C73.9494 13.0336 74.5253 13.177 75.0776 13.3547V13.0069C75.0776 12.0264 74.7789 11.2772 74.1806 10.7591C73.5823 10.2422 72.7228 9.98313 71.5989 9.98313C70.7962 9.98313 70.0823 10.0634 69.4583 10.224C68.8332 10.3845 68.2006 10.5986 67.5584 10.8662L66.6754 8.27057C67.4599 7.91415 68.2627 7.62836 69.0836 7.41429C69.9035 7.20023 70.8936 7.09319 72.0538 7.09319C74.1581 7.09319 75.7198 7.61552 76.7366 8.65804C77.7534 9.70056 78.2619 11.1691 78.2619 13.0593V21.4348H75.0508L75.0529 21.4337ZM75.1332 15.4398C74.7222 15.2792 74.2363 15.1454 73.6754 15.0384C73.1135 14.9313 72.5205 14.8778 71.8965 14.8778C70.8797 14.8778 70.0855 15.0748 69.515 15.4665C68.9434 15.8593 68.6587 16.4213 68.6587 17.1523V17.2058C68.6587 17.8844 68.922 18.4014 69.4475 18.7578C69.9731 19.1153 70.6206 19.293 71.387 19.293C71.9222 19.293 72.4167 19.2224 72.8716 19.0789C73.3265 18.9366 73.7236 18.7354 74.0618 18.4774C74.4 18.2194 74.6633 17.9069 74.8517 17.5408C75.039 17.1759 75.1322 16.7691 75.1322 16.3239V15.4408L75.1332 15.4398ZM99.4546 19.2127C99.187 19.7661 98.8167 20.2253 98.3447 20.5903C97.8716 20.9563 97.315 21.2325 96.6728 21.4198C96.0306 21.6071 95.3434 21.7002 94.6124 21.7002C93.5955 21.7002 92.5659 21.5215 91.5223 21.165C90.4787 20.8086 89.5111 20.282 88.6195 19.5863L90.0645 17.3921C90.8308 17.9636 91.6122 18.395 92.4053 18.6893C93.1984 18.9837 93.9616 19.1303 94.6926 19.1303C95.4237 19.1303 95.9278 18.9922 96.311 18.715C96.6942 18.4389 96.8858 18.0685 96.8858 17.6051V17.5515C96.8858 17.284 96.8012 17.0528 96.631 16.8558C96.4619 16.6599 96.2297 16.4855 95.9353 16.3335C95.641 16.1826 95.3017 16.0488 94.9185 15.9321C94.6743 15.8586 94.4253 15.783 94.1711 15.7058L94.1702 15.7055L93.7283 15.5714C93.2102 15.4108 92.689 15.2332 92.1634 15.0362C91.6368 14.8404 91.1648 14.5856 90.7452 14.2741C90.3256 13.9627 89.9831 13.5784 89.7155 13.1235C89.4479 12.6686 89.3141 12.1024 89.3141 11.4249V11.3714C89.3141 10.712 89.4437 10.1137 89.7016 9.57853C89.9596 9.04336 90.3171 8.58846 90.772 8.21384C91.2269 7.83922 91.762 7.5545 92.3775 7.35756C92.9929 7.16169 93.6491 7.06322 94.3437 7.06322C95.2353 7.06322 96.1365 7.20664 97.0463 7.49135C97.9561 7.77714 98.7857 8.16995 99.5349 8.66874L98.2505 10.97C97.5719 10.56 96.8858 10.2347 96.1901 9.99383C95.4943 9.753 94.8521 9.63205 94.2634 9.63205C93.6394 9.63205 93.1535 9.76584 92.8056 10.0334C92.4578 10.301 92.2833 10.6403 92.2833 11.0503V11.1038C92.2833 11.3542 92.3721 11.5726 92.5509 11.7588C92.7286 11.9461 92.9662 12.1163 93.2595 12.2672C93.5538 12.4192 93.892 12.5616 94.2763 12.6954C94.6595 12.8292 95.0566 12.9587 95.4665 13.0828C95.9835 13.2434 96.5005 13.4307 97.0185 13.6448C97.5355 13.8588 98.0043 14.1222 98.4228 14.4347C98.8413 14.7472 99.1849 15.1261 99.4525 15.5714C99.7201 16.0177 99.8539 16.5615 99.8539 17.2037V17.2572C99.8539 18.0064 99.7201 18.6583 99.4525 19.2106L99.4546 19.2127ZM111.79 19.6944V21.4337L111.789 21.4348H115V13.0593C115 11.1691 114.491 9.70163 113.475 8.65804C112.458 7.61552 110.896 7.09319 108.792 7.09319C107.632 7.09319 106.641 7.20023 105.822 7.41429C105.001 7.62836 104.198 7.91415 103.413 8.27057L104.296 10.8662C104.939 10.5986 105.571 10.3845 106.196 10.224C106.82 10.0634 107.534 9.98313 108.337 9.98313C109.461 9.98313 110.32 10.2422 110.919 10.7591C111.517 11.2772 111.816 12.0264 111.816 13.0069V13.3547C111.263 13.177 110.687 13.0336 110.09 12.9266C109.493 12.8195 108.73 12.766 107.91 12.766C107.09 12.766 106.327 12.8592 105.623 13.0465C104.917 13.2338 104.31 13.5142 103.803 13.8888C103.296 14.2634 102.897 14.7365 102.613 15.307C102.327 15.8786 102.185 16.5476 102.185 17.3139V17.3675C102.185 18.0803 102.323 18.7097 102.599 19.2534C102.875 19.7982 103.241 20.2531 103.696 20.6181C104.151 20.9842 104.681 21.2603 105.287 21.4476C105.893 21.6339 106.536 21.728 107.214 21.728C108.284 21.728 109.194 21.5311 109.944 21.1394C110.693 20.7476 111.308 20.2659 111.79 19.6944ZM110.412 15.0384C110.973 15.1454 111.459 15.2792 111.87 15.4398L111.871 15.4408V16.3239C111.871 16.7691 111.778 17.1759 111.591 17.5408C111.402 17.9069 111.139 18.2194 110.801 18.4774C110.463 18.7354 110.066 18.9366 109.611 19.0789C109.155 19.2224 108.66 19.293 108.125 19.293C107.359 19.293 106.711 19.1153 106.186 18.7578C105.659 18.4014 105.396 17.8844 105.396 17.2058V17.1523C105.396 16.4213 105.68 15.8593 106.252 15.4665C106.822 15.0748 107.617 14.8778 108.633 14.8778C109.257 14.8778 109.85 14.9313 110.412 15.0384Z" fill="black"/>
</svg>
