<?xml version="1.0" encoding="UTF-8"?>
<svg xmlns="http://www.w3.org/2000/svg" width="151" height="36" viewBox="0 0 151 36" fill="none">
  <g clip-path="url(#clip0_1318_2257)">
    <path d="M7.74278 9.94698H7.74228C6.25581 9.94698 5.05078 11.1506 5.05078 12.6352V12.6357C5.05078 14.1204 6.25581 15.324 7.74228 15.324H7.74278C9.22926 15.324 10.4343 14.1204 10.4343 12.6357V12.6352C10.4343 11.1506 9.22926 9.94698 7.74278 9.94698Z" fill="white"></path>
    <path d="M7.74278 9.94698H7.74228C6.25581 9.94698 5.05078 11.1506 5.05078 12.6352V12.6357C5.05078 14.1204 6.25581 15.324 7.74228 15.324H7.74278C9.22926 15.324 10.4343 14.1204 10.4343 12.6357V12.6352C10.4343 11.1506 9.22926 9.94698 7.74278 9.94698Z" fill="#242424"></path>
    <path d="M7.7429 5.377H7.7424C6.70189 5.377 5.8584 6.21948 5.8584 7.25873V7.25923C5.8584 8.29848 6.70189 9.14095 7.7424 9.14095H7.7429C8.7834 9.14095 9.6269 8.29848 9.6269 7.25923V7.25873C9.6269 6.21948 8.7834 5.377 7.7429 5.377Z" fill="white"></path>
    <path d="M7.7429 5.377H7.7424C6.70189 5.377 5.8584 6.21948 5.8584 7.25873V7.25923C5.8584 8.29848 6.70189 9.14095 7.7424 9.14095H7.7429C8.7834 9.14095 9.6269 8.29848 9.6269 7.25923V7.25873C9.6269 6.21948 8.7834 5.377 7.7429 5.377Z" fill="#242424"></path>
    <path d="M7.76817 15.299H7.76767C6.2812 15.299 5.07617 16.5026 5.07617 17.9873V17.9878C5.07617 19.4724 6.2812 20.676 7.76767 20.676H7.76817C9.25465 20.676 10.4597 19.4724 10.4597 17.9878V17.9873C10.4597 16.5026 9.25465 15.299 7.76817 15.299Z" fill="white"></path>
    <path d="M7.76817 15.299H7.76767C6.2812 15.299 5.07617 16.5026 5.07617 17.9873V17.9878C5.07617 19.4724 6.2812 20.676 7.76767 20.676H7.76817C9.25465 20.676 10.4597 19.4724 10.4597 17.9878V17.9873C10.4597 16.5026 9.25465 15.299 7.76817 15.299Z" fill="#242424"></path>
    <path d="M7.76817 20.676H7.76767C6.2812 20.676 5.07617 21.8796 5.07617 23.3643V23.3648C5.07617 24.8495 6.2812 26.053 7.76767 26.053H7.76817C9.25465 26.053 10.4597 24.8495 10.4597 23.3648V23.3643C10.4597 21.8796 9.25465 20.676 7.76817 20.676Z" fill="white"></path>
    <path d="M7.76817 20.676H7.76767C6.2812 20.676 5.07617 21.8796 5.07617 23.3643V23.3648C5.07617 24.8495 6.2812 26.053 7.76767 26.053H7.76817C9.25465 26.053 10.4597 24.8495 10.4597 23.3648V23.3643C10.4597 21.8796 9.25465 20.676 7.76817 20.676Z" fill="#242424"></path>
    <path d="M7.7678 26.859H7.7673C6.7268 26.859 5.8833 27.7015 5.8833 28.7408V28.7413C5.8833 29.7805 6.7268 30.623 7.7673 30.623H7.7678C8.80831 30.623 9.6518 29.7805 9.6518 28.7413V28.7408C9.6518 27.7015 8.80831 26.859 7.7678 26.859Z" fill="white"></path>
    <path d="M7.7678 26.859H7.7673C6.7268 26.859 5.8833 27.7015 5.8833 28.7408V28.7413C5.8833 29.7805 6.7268 30.623 7.7673 30.623H7.7678C8.80831 30.623 9.6518 29.7805 9.6518 28.7413V28.7408C9.6518 27.7015 8.80831 26.859 7.7678 26.859Z" fill="#242424"></path>
    <path d="M13.1267 10.7535H13.1262C12.0857 10.7535 11.2422 11.596 11.2422 12.6352V12.6357C11.2422 13.675 12.0857 14.5175 13.1262 14.5175H13.1267C14.1672 14.5175 15.0107 13.675 15.0107 12.6357V12.6352C15.0107 11.596 14.1672 10.7535 13.1267 10.7535Z" fill="white"></path>
    <path d="M13.1267 10.7535H13.1262C12.0857 10.7535 11.2422 11.596 11.2422 12.6352V12.6357C11.2422 13.675 12.0857 14.5175 13.1262 14.5175H13.1267C14.1672 14.5175 15.0107 13.675 15.0107 12.6357V12.6352C15.0107 11.596 14.1672 10.7535 13.1267 10.7535Z" fill="#242424"></path>
    <path d="M13.1267 5.377H13.1262C12.0857 5.377 11.2422 6.21948 11.2422 7.25873V7.25923C11.2422 8.29848 12.0857 9.14095 13.1262 9.14095H13.1267C14.1672 9.14095 15.0107 8.29848 15.0107 7.25923V7.25873C15.0107 6.21948 14.1672 5.377 13.1267 5.377Z" fill="white"></path>
    <path d="M13.1267 5.377H13.1262C12.0857 5.377 11.2422 6.21948 11.2422 7.25873V7.25923C11.2422 8.29848 12.0857 9.14095 13.1262 9.14095H13.1267C14.1672 9.14095 15.0107 8.29848 15.0107 7.25923V7.25873C15.0107 6.21948 14.1672 5.377 13.1267 5.377Z" fill="#242424"></path>
    <path d="M14.4713 1.88198C14.4713 1.13964 13.8688 0.537849 13.1255 0.537849C12.3823 0.537849 11.7798 1.13964 11.7798 1.88198C11.7798 2.62432 12.3823 3.2261 13.1255 3.2261C13.8688 3.2261 14.4713 2.62432 14.4713 1.88198Z" fill="white"></path>
    <path d="M14.4713 1.88198C14.4713 1.13964 13.8688 0.537849 13.1255 0.537849C12.3823 0.537849 11.7798 1.13964 11.7798 1.88198C11.7798 2.62432 12.3823 3.2261 13.1255 3.2261C13.8688 3.2261 14.4713 2.62432 14.4713 1.88198Z" fill="#242424"></path>
    <path d="M13.1511 16.1055H13.1506C12.1101 16.1055 11.2666 16.948 11.2666 17.9873V17.9878C11.2666 19.027 12.1101 19.8695 13.1506 19.8695H13.1511C14.1916 19.8695 15.0351 19.027 15.0351 17.9878V17.9873C15.0351 16.948 14.1916 16.1055 13.1511 16.1055Z" fill="white"></path>
    <path d="M13.1511 16.1055H13.1506C12.1101 16.1055 11.2666 16.948 11.2666 17.9873V17.9878C11.2666 19.027 12.1101 19.8695 13.1506 19.8695H13.1511C14.1916 19.8695 15.0351 19.027 15.0351 17.9878V17.9873C15.0351 16.948 14.1916 16.1055 13.1511 16.1055Z" fill="#242424"></path>
    <path d="M2.3845 16.1055H2.384C1.3435 16.1055 0.5 16.948 0.5 17.9873V17.9878C0.5 19.027 1.3435 19.8695 2.384 19.8695H2.3845C3.425 19.8695 4.2685 19.027 4.2685 17.9878V17.9873C4.2685 16.948 3.425 16.1055 2.3845 16.1055Z" fill="white"></path>
    <path d="M2.3845 16.1055H2.384C1.3435 16.1055 0.5 16.948 0.5 17.9873V17.9878C0.5 19.027 1.3435 19.8695 2.384 19.8695H2.3845C3.425 19.8695 4.2685 19.027 4.2685 17.9878V17.9873C4.2685 16.948 3.425 16.1055 2.3845 16.1055Z" fill="#242424"></path>
    <path d="M40.26 16.1055H40.2595C39.219 16.1055 38.3755 16.948 38.3755 17.9873V17.9878C38.3755 19.027 39.219 19.8695 40.2595 19.8695H40.26C41.3005 19.8695 42.144 19.027 42.144 17.9878V17.9873C42.144 16.948 41.3005 16.1055 40.26 16.1055Z" fill="white"></path>
    <path d="M40.26 16.1055H40.2595C39.219 16.1055 38.3755 16.948 38.3755 17.9873V17.9878C38.3755 19.027 39.219 19.8695 40.2595 19.8695H40.26C41.3005 19.8695 42.144 19.027 42.144 17.9878V17.9873C42.144 16.948 41.3005 16.1055 40.26 16.1055Z" fill="#242424"></path>
    <path d="M13.1511 21.4825H13.1506C12.1101 21.4825 11.2666 22.325 11.2666 23.3643V23.3648C11.2666 24.404 12.1101 25.2465 13.1506 25.2465H13.1511C14.1916 25.2465 15.0351 24.404 15.0351 23.3648V23.3643C15.0351 22.325 14.1916 21.4825 13.1511 21.4825Z" fill="white"></path>
    <path d="M13.1511 21.4825H13.1506C12.1101 21.4825 11.2666 22.325 11.2666 23.3643V23.3648C11.2666 24.404 12.1101 25.2465 13.1506 25.2465H13.1511C14.1916 25.2465 15.0351 24.404 15.0351 23.3648V23.3643C15.0351 22.325 14.1916 21.4825 13.1511 21.4825Z" fill="#242424"></path>
    <path d="M13.1511 26.859H13.1506C12.1101 26.859 11.2666 27.7015 11.2666 28.7408V28.7413C11.2666 29.7805 12.1101 30.623 13.1506 30.623H13.1511C14.1916 30.623 15.0351 29.7805 15.0351 28.7413V28.7408C15.0351 27.7015 14.1916 26.859 13.1511 26.859Z" fill="white"></path>
    <path d="M13.1511 26.859H13.1506C12.1101 26.859 11.2666 27.7015 11.2666 28.7408V28.7413C11.2666 29.7805 12.1101 30.623 13.1506 30.623H13.1511C14.1916 30.623 15.0351 29.7805 15.0351 28.7413V28.7408C15.0351 27.7015 14.1916 26.859 13.1511 26.859Z" fill="#242424"></path>
    <path d="M14.4967 34.118C14.4967 33.3757 13.8942 32.7739 13.1509 32.7739C12.4077 32.7739 11.8052 33.3757 11.8052 34.118C11.8052 34.8604 12.4077 35.4621 13.1509 35.4621C13.8942 35.4621 14.4967 34.8604 14.4967 34.118Z" fill="white"></path>
    <path d="M14.4967 34.118C14.4967 33.3757 13.8942 32.7739 13.1509 32.7739C12.4077 32.7739 11.8052 33.3757 11.8052 34.118C11.8052 34.8604 12.4077 35.4621 13.1509 35.4621C13.8942 35.4621 14.4967 34.8604 14.4967 34.118Z" fill="#242424"></path>
    <path d="M19.8551 12.6355C19.8551 11.8931 19.2526 11.2914 18.5093 11.2914C17.7661 11.2914 17.1636 11.8931 17.1636 12.6355C17.1636 13.3778 17.7661 13.9796 18.5093 13.9796C19.2526 13.9796 19.8551 13.3778 19.8551 12.6355Z" fill="white"></path>
    <path d="M19.8551 12.6355C19.8551 11.8931 19.2526 11.2914 18.5093 11.2914C17.7661 11.2914 17.1636 11.8931 17.1636 12.6355C17.1636 13.3778 17.7661 13.9796 18.5093 13.9796C19.2526 13.9796 19.8551 13.3778 19.8551 12.6355Z" fill="#242424"></path>
    <path d="M18.5344 16.1055H18.5339C17.4934 16.1055 16.6499 16.948 16.6499 17.9873V17.9878C16.6499 19.027 17.4934 19.8695 18.5339 19.8695H18.5344C19.5749 19.8695 20.4184 19.027 20.4184 17.9878V17.9873C20.4184 16.948 19.5749 16.1055 18.5344 16.1055Z" fill="white"></path>
    <path d="M18.5344 16.1055H18.5339C17.4934 16.1055 16.6499 16.948 16.6499 17.9873V17.9878C16.6499 19.027 17.4934 19.8695 18.5339 19.8695H18.5344C19.5749 19.8695 20.4184 19.027 20.4184 17.9878V17.9873C20.4184 16.948 19.5749 16.1055 18.5344 16.1055Z" fill="#242424"></path>
    <path d="M19.88 23.364C19.88 22.6217 19.2775 22.0199 18.5342 22.0199C17.791 22.0199 17.1885 22.6217 17.1885 23.364C17.1885 24.1064 17.791 24.7081 18.5342 24.7081C19.2775 24.7081 19.88 24.1064 19.88 23.364Z" fill="white"></path>
    <path d="M19.88 23.364C19.88 22.6217 19.2775 22.0199 18.5342 22.0199C17.791 22.0199 17.1885 22.6217 17.1885 23.364C17.1885 24.1064 17.791 24.7081 18.5342 24.7081C19.2775 24.7081 19.88 24.1064 19.88 23.364Z" fill="#242424"></path>
    <path d="M23.9182 16.1055H23.9177C22.8772 16.1055 22.0337 16.948 22.0337 17.9873V17.9878C22.0337 19.027 22.8772 19.8695 23.9177 19.8695H23.9182C24.9587 19.8695 25.8022 19.027 25.8022 17.9878V17.9873C25.8022 16.948 24.9587 16.1055 23.9182 16.1055Z" fill="white"></path>
    <path d="M23.9182 16.1055H23.9177C22.8772 16.1055 22.0337 16.948 22.0337 17.9873V17.9878C22.0337 19.027 22.8772 19.8695 23.9177 19.8695H23.9182C24.9587 19.8695 25.8022 19.027 25.8022 17.9878V17.9873C25.8022 16.948 24.9587 16.1055 23.9182 16.1055Z" fill="#242424"></path>
    <path d="M23.9182 21.4825H23.9177C22.8772 21.4825 22.0337 22.325 22.0337 23.3643V23.3648C22.0337 24.404 22.8772 25.2465 23.9177 25.2465H23.9182C24.9587 25.2465 25.8022 24.404 25.8022 23.3648V23.3643C25.8022 22.325 24.9587 21.4825 23.9182 21.4825Z" fill="white"></path>
    <path d="M23.9182 21.4825H23.9177C22.8772 21.4825 22.0337 22.325 22.0337 23.3643V23.3648C22.0337 24.404 22.8772 25.2465 23.9177 25.2465H23.9182C24.9587 25.2465 25.8022 24.404 25.8022 23.3648V23.3643C25.8022 22.325 24.9587 21.4825 23.9182 21.4825Z" fill="#242424"></path>
    <path d="M29.276 9.94698H29.2755C27.789 9.94698 26.584 11.1506 26.584 12.6352V12.6357C26.584 14.1204 27.789 15.324 29.2755 15.324H29.276C30.7625 15.324 31.9675 14.1204 31.9675 12.6357V12.6352C31.9675 11.1506 30.7625 9.94698 29.276 9.94698Z" fill="white"></path>
    <path d="M29.276 9.94698H29.2755C27.789 9.94698 26.584 11.1506 26.584 12.6352V12.6357C26.584 14.1204 27.789 15.324 29.2755 15.324H29.276C30.7625 15.324 31.9675 14.1204 31.9675 12.6357V12.6352C31.9675 11.1506 30.7625 9.94698 29.276 9.94698Z" fill="#242424"></path>
    <path d="M29.276 4.57048H29.2755C27.789 4.57048 26.584 5.77405 26.584 7.25873V7.25923C26.584 8.74391 27.789 9.94748 29.2755 9.94748H29.276C30.7625 9.94748 31.9675 8.74391 31.9675 7.25923V7.25873C31.9675 5.77405 30.7625 4.57048 29.276 4.57048Z" fill="white"></path>
    <path d="M29.276 4.57048H29.2755C27.789 4.57048 26.584 5.77405 26.584 7.25873V7.25923C26.584 8.74391 27.789 9.94748 29.2755 9.94748H29.276C30.7625 9.94748 31.9675 8.74391 31.9675 7.25923V7.25873C31.9675 5.77405 30.7625 4.57048 29.276 4.57048Z" fill="#242424"></path>
    <path d="M29.2761 0H29.2756C28.2351 0 27.3916 0.842478 27.3916 1.88173V1.88223C27.3916 2.92147 28.2351 3.76395 29.2756 3.76395H29.2761C30.3166 3.76395 31.1601 2.92147 31.1601 1.88223V1.88173C31.1601 0.842478 30.3166 0 29.2761 0Z" fill="white"></path>
    <path d="M29.2761 0H29.2756C28.2351 0 27.3916 0.842478 27.3916 1.88173V1.88223C27.3916 2.92147 28.2351 3.76395 29.2756 3.76395H29.2761C30.3166 3.76395 31.1601 2.92147 31.1601 1.88223V1.88173C31.1601 0.842478 30.3166 0 29.2761 0Z" fill="#242424"></path>
    <path d="M29.3009 15.299H29.3004C27.8139 15.299 26.6089 16.5026 26.6089 17.9873V17.9878C26.6089 19.4724 27.8139 20.676 29.3004 20.676H29.3009C30.7874 20.676 31.9924 19.4724 31.9924 17.9878V17.9873C31.9924 16.5026 30.7874 15.299 29.3009 15.299Z" fill="white"></path>
    <path d="M29.3009 15.299H29.3004C27.8139 15.299 26.6089 16.5026 26.6089 17.9873V17.9878C26.6089 19.4724 27.8139 20.676 29.3004 20.676H29.3009C30.7874 20.676 31.9924 19.4724 31.9924 17.9878V17.9873C31.9924 16.5026 30.7874 15.299 29.3009 15.299Z" fill="#242424"></path>
    <path d="M29.3009 20.676H29.3004C27.8139 20.676 26.6089 21.8796 26.6089 23.3643V23.3648C26.6089 24.8495 27.8139 26.053 29.3004 26.053H29.3009C30.7874 26.053 31.9924 24.8495 31.9924 23.3648V23.3643C31.9924 21.8796 30.7874 20.676 29.3009 20.676Z" fill="white"></path>
    <path d="M29.3009 20.676H29.3004C27.8139 20.676 26.6089 21.8796 26.6089 23.3643V23.3648C26.6089 24.8495 27.8139 26.053 29.3004 26.053H29.3009C30.7874 26.053 31.9924 24.8495 31.9924 23.3648V23.3643C31.9924 21.8796 30.7874 20.676 29.3009 20.676Z" fill="#242424"></path>
    <path d="M29.301 26.859H29.3005C28.26 26.859 27.4165 27.7015 27.4165 28.7408V28.7413C27.4165 29.7805 28.26 30.623 29.3005 30.623H29.301C30.3415 30.623 31.185 29.7805 31.185 28.7413V28.7408C31.185 27.7015 30.3415 26.859 29.301 26.859Z" fill="white"></path>
    <path d="M29.301 26.859H29.3005C28.26 26.859 27.4165 27.7015 27.4165 28.7408V28.7413C27.4165 29.7805 28.26 30.623 29.3005 30.623H29.301C30.3415 30.623 31.185 29.7805 31.185 28.7413V28.7408C31.185 27.7015 30.3415 26.859 29.301 26.859Z" fill="#242424"></path>
    <path d="M29.301 32.2361H29.3005C28.26 32.2361 27.4165 33.0785 27.4165 34.1178V34.1183C27.4165 35.1575 28.26 36 29.3005 36H29.301C30.3415 36 31.185 35.1575 31.185 34.1183V34.1178C31.185 33.0785 30.3415 32.2361 29.301 32.2361Z" fill="white"></path>
    <path d="M29.301 32.2361H29.3005C28.26 32.2361 27.4165 33.0785 27.4165 34.1178V34.1183C27.4165 35.1575 28.26 36 29.3005 36H29.301C30.3415 36 31.185 35.1575 31.185 34.1183V34.1178C31.185 33.0785 30.3415 32.2361 29.301 32.2361Z" fill="#242424"></path>
    <path d="M34.6594 10.7535H34.6589C33.6184 10.7535 32.7749 11.596 32.7749 12.6352V12.6357C32.7749 13.675 33.6184 14.5175 34.6589 14.5175H34.6594C35.6999 14.5175 36.5434 13.675 36.5434 12.6357V12.6352C36.5434 11.596 35.6999 10.7535 34.6594 10.7535Z" fill="white"></path>
    <path d="M34.6594 10.7535H34.6589C33.6184 10.7535 32.7749 11.596 32.7749 12.6352V12.6357C32.7749 13.675 33.6184 14.5175 34.6589 14.5175H34.6594C35.6999 14.5175 36.5434 13.675 36.5434 12.6357V12.6352C36.5434 11.596 35.6999 10.7535 34.6594 10.7535Z" fill="#242424"></path>
    <path d="M34.6594 5.377H34.6589C33.6184 5.377 32.7749 6.21948 32.7749 7.25873V7.25923C32.7749 8.29848 33.6184 9.14095 34.6589 9.14095H34.6594C35.6999 9.14095 36.5434 8.29848 36.5434 7.25923V7.25873C36.5434 6.21948 35.6999 5.377 34.6594 5.377Z" fill="white"></path>
    <path d="M34.6594 5.377H34.6589C33.6184 5.377 32.7749 6.21948 32.7749 7.25873V7.25923C32.7749 8.29848 33.6184 9.14095 34.6589 9.14095H34.6594C35.6999 9.14095 36.5434 8.29848 36.5434 7.25923V7.25873C36.5434 6.21948 35.6999 5.377 34.6594 5.377Z" fill="#242424"></path>
    <path d="M34.6847 15.299H34.6842C33.1977 15.299 31.9927 16.5026 31.9927 17.9873V17.9878C31.9927 19.4724 33.1977 20.676 34.6842 20.676H34.6847C36.1712 20.676 37.3762 19.4724 37.3762 17.9878V17.9873C37.3762 16.5026 36.1712 15.299 34.6847 15.299Z" fill="white"></path>
    <path d="M34.6847 15.299H34.6842C33.1977 15.299 31.9927 16.5026 31.9927 17.9873V17.9878C31.9927 19.4724 33.1977 20.676 34.6842 20.676H34.6847C36.1712 20.676 37.3762 19.4724 37.3762 17.9878V17.9873C37.3762 16.5026 36.1712 15.299 34.6847 15.299Z" fill="#242424"></path>
    <path d="M34.6847 20.676H34.6842C33.1977 20.676 31.9927 21.8796 31.9927 23.3643V23.3648C31.9927 24.8495 33.1977 26.053 34.6842 26.053H34.6847C36.1712 26.053 37.3762 24.8495 37.3762 23.3648V23.3643C37.3762 21.8796 36.1712 20.676 34.6847 20.676Z" fill="white"></path>
    <path d="M34.6847 20.676H34.6842C33.1977 20.676 31.9927 21.8796 31.9927 23.3643V23.3648C31.9927 24.8495 33.1977 26.053 34.6842 26.053H34.6847C36.1712 26.053 37.3762 24.8495 37.3762 23.3648V23.3643C37.3762 21.8796 36.1712 20.676 34.6847 20.676Z" fill="#242424"></path>
    <path d="M34.6847 26.0525H34.6842C33.1977 26.0525 31.9927 27.2561 31.9927 28.7408V28.7413C31.9927 30.226 33.1977 31.4295 34.6842 31.4295H34.6847C36.1712 31.4295 37.3762 30.226 37.3762 28.7413V28.7408C37.3762 27.2561 36.1712 26.0525 34.6847 26.0525Z" fill="white"></path>
    <path d="M34.6847 26.0525H34.6842C33.1977 26.0525 31.9927 27.2561 31.9927 28.7408V28.7413C31.9927 30.226 33.1977 31.4295 34.6842 31.4295H34.6847C36.1712 31.4295 37.3762 30.226 37.3762 28.7413V28.7408C37.3762 27.2561 36.1712 26.0525 34.6847 26.0525Z" fill="#242424"></path>
    <path d="M129.112 16.6069H129.112C127.541 16.6069 126.268 17.8787 126.268 19.4475V19.448C126.268 21.0168 127.541 22.2886 129.112 22.2886H129.112C130.683 22.2886 131.956 21.0168 131.956 19.448V19.4475C131.956 17.8787 130.683 16.6069 129.112 16.6069Z" fill="white"></path>
    <path d="M129.112 16.6069H129.112C127.541 16.6069 126.268 17.8787 126.268 19.4475V19.448C126.268 21.0168 127.541 22.2886 129.112 22.2886H129.112C130.683 22.2886 131.956 21.0168 131.956 19.448V19.4475C131.956 17.8787 130.683 16.6069 129.112 16.6069Z" fill="#242424"></path>
    <path d="M150.5 10.5785C150.5 9.76028 149.836 9.09701 149.016 9.09701C148.197 9.09701 147.533 9.76028 147.533 10.5785C147.533 11.3967 148.197 12.0599 149.016 12.0599C149.836 12.0599 150.5 11.3967 150.5 10.5785Z" fill="white"></path>
    <path d="M150.5 10.5785C150.5 9.76028 149.836 9.09701 149.016 9.09701C148.197 9.09701 147.533 9.76028 147.533 10.5785C147.533 11.3967 148.197 12.0599 149.016 12.0599C149.836 12.0599 150.5 11.3967 150.5 10.5785Z" fill="#242424"></path>
    <path d="M62.0578 14.3661C61.4003 14.0111 60.6468 13.8333 59.7963 13.8333C58.9458 13.8333 58.1763 14.03 57.4888 14.4241C56.8003 14.8176 56.2398 15.3624 55.8073 16.0571V9.94848H53.2793V26.0415H55.8073V20.7599C55.8073 19.8026 55.9423 18.9726 56.2133 18.2699C56.4838 17.5673 56.8663 17.0304 57.3613 16.6599C57.8558 16.2893 58.4433 16.104 59.1238 16.104C59.8813 16.104 60.4883 16.3438 60.9443 16.8222C61.4003 17.3011 61.6283 17.9188 61.6283 18.6754V26.042H64.1333V18.1196C64.1333 17.2706 63.9513 16.5215 63.5883 15.8728C63.2248 15.2241 62.7148 14.7227 62.0578 14.3671V14.3661Z" fill="white"></path>
    <path d="M62.0578 14.3661C61.4003 14.0111 60.6468 13.8333 59.7963 13.8333C58.9458 13.8333 58.1763 14.03 57.4888 14.4241C56.8003 14.8176 56.2398 15.3624 55.8073 16.0571V9.94848H53.2793V26.0415H55.8073V20.7599C55.8073 19.8026 55.9423 18.9726 56.2133 18.2699C56.4838 17.5673 56.8663 17.0304 57.3613 16.6599C57.8558 16.2893 58.4433 16.104 59.1238 16.104C59.8813 16.104 60.4883 16.3438 60.9443 16.8222C61.4003 17.3011 61.6283 17.9188 61.6283 18.6754V26.042H64.1333V18.1196C64.1333 17.2706 63.9513 16.5215 63.5883 15.8728C63.2248 15.2241 62.7148 14.7227 62.0578 14.3671V14.3661Z" fill="#242424"></path>
    <path d="M75.2545 14.6328C74.3345 14.1 73.2945 13.8338 72.135 13.8338C70.9755 13.8338 69.9395 14.1 69.027 14.6328C68.1145 15.1657 67.3995 15.8993 66.8815 16.8332C66.363 17.7675 66.1045 18.8292 66.1045 20.0183C66.1045 21.2074 66.3595 22.2731 66.87 23.2149C67.3805 24.1573 68.0955 24.8944 69.0155 25.4273C69.935 25.9601 70.9755 26.2263 72.135 26.2263C73.2945 26.2263 74.3345 25.9596 75.2545 25.4273C76.174 24.8944 76.897 24.1573 77.423 23.2149C77.9485 22.2731 78.2115 21.2074 78.2115 20.0183C78.2115 18.8292 77.9485 17.787 77.423 16.8446C76.897 15.9028 76.174 15.1652 75.2545 14.6323V14.6328ZM75.173 22.0918C74.879 22.7021 74.4735 23.177 73.9555 23.5166C73.4375 23.8567 72.838 24.0265 72.158 24.0265C71.478 24.0265 70.851 23.8567 70.3255 23.5166C69.7995 23.177 69.394 22.7061 69.108 22.1033C68.8215 21.501 68.679 20.8059 68.679 20.0183C68.679 19.2308 68.8215 18.5786 69.108 17.9683C69.394 17.3585 69.8 16.8836 70.3255 16.5435C70.851 16.2039 71.454 16.0336 72.1345 16.0336C72.815 16.0336 73.3985 16.2039 73.932 16.5435C74.4655 16.8836 74.879 17.3545 75.173 17.9568C75.4665 18.5591 75.6135 19.2462 75.6135 20.0183C75.6135 20.7904 75.4665 21.4815 75.173 22.0913V22.0918Z" fill="white"></path>
    <path d="M75.2545 14.6328C74.3345 14.1 73.2945 13.8338 72.135 13.8338C70.9755 13.8338 69.9395 14.1 69.027 14.6328C68.1145 15.1657 67.3995 15.8993 66.8815 16.8332C66.363 17.7675 66.1045 18.8292 66.1045 20.0183C66.1045 21.2074 66.3595 22.2731 66.87 23.2149C67.3805 24.1573 68.0955 24.8944 69.0155 25.4273C69.935 25.9601 70.9755 26.2263 72.135 26.2263C73.2945 26.2263 74.3345 25.9596 75.2545 25.4273C76.174 24.8944 76.897 24.1573 77.423 23.2149C77.9485 22.2731 78.2115 21.2074 78.2115 20.0183C78.2115 18.8292 77.9485 17.787 77.423 16.8446C76.897 15.9028 76.174 15.1652 75.2545 14.6323V14.6328ZM75.173 22.0918C74.879 22.7021 74.4735 23.177 73.9555 23.5166C73.4375 23.8567 72.838 24.0265 72.158 24.0265C71.478 24.0265 70.851 23.8567 70.3255 23.5166C69.7995 23.177 69.394 22.7061 69.108 22.1033C68.8215 21.501 68.679 20.8059 68.679 20.0183C68.679 19.2308 68.8215 18.5786 69.108 17.9683C69.394 17.3585 69.8 16.8836 70.3255 16.5435C70.851 16.2039 71.454 16.0336 72.1345 16.0336C72.815 16.0336 73.3985 16.2039 73.932 16.5435C74.4655 16.8836 74.879 17.3545 75.173 17.9568C75.4665 18.5591 75.6135 19.2462 75.6135 20.0183C75.6135 20.7904 75.4665 21.4815 75.173 22.0913V22.0918Z" fill="#242424"></path>
    <path d="M88.4625 20.0762C87.8595 19.5589 87.0015 19.1768 85.888 18.9296L83.8935 18.4897C83.445 18.3973 83.097 18.239 82.85 18.0147C82.6025 17.791 82.479 17.5248 82.479 17.2157C82.479 16.8142 82.649 16.4941 82.9895 16.2544C83.3295 16.0151 83.778 15.8953 84.3345 15.8953C84.9375 15.8953 85.4595 16.0461 85.9 16.3472C86.3405 16.6484 86.5915 17.0539 86.6535 17.5633H89.135C89.042 16.8067 88.7755 16.1465 88.335 15.5827C87.8945 15.0188 87.33 14.5864 86.642 14.2852C85.954 13.9841 85.1845 13.8333 84.3345 13.8333C83.4845 13.8333 82.703 13.9836 82.0385 14.2852C81.3735 14.5864 80.8595 14.9919 80.496 15.5013C80.1325 16.0107 79.951 16.5825 79.951 17.2157C79.951 18.2504 80.256 19.034 80.867 19.5669C81.4775 20.0997 82.2935 20.4817 83.314 20.7135L85.3085 21.1769C85.7875 21.2853 86.155 21.4516 86.41 21.6748C86.665 21.899 86.7925 22.2042 86.7925 22.5897C86.7925 23.0067 86.5875 23.3543 86.178 23.6319C85.768 23.9101 85.2305 24.0489 84.566 24.0489C83.824 24.0489 83.2015 23.8402 82.699 23.4237C82.1965 23.0067 81.9295 22.5203 81.899 21.9645H79.4175C79.4485 22.783 79.6845 23.5166 80.125 24.1653C80.5655 24.814 81.1685 25.3199 81.934 25.6825C82.6995 26.045 83.5765 26.2268 84.5665 26.2268C85.5565 26.2268 86.3445 26.0645 87.0715 25.7404C87.798 25.4163 88.3625 24.9723 88.7645 24.4085C89.1665 23.8452 89.3675 23.2154 89.3675 22.5208C89.3675 21.4086 89.066 20.5946 88.463 20.0767L88.4625 20.0762Z" fill="white"></path>
    <path d="M88.4625 20.0762C87.8595 19.5589 87.0015 19.1768 85.888 18.9296L83.8935 18.4897C83.445 18.3973 83.097 18.239 82.85 18.0147C82.6025 17.791 82.479 17.5248 82.479 17.2157C82.479 16.8142 82.649 16.4941 82.9895 16.2544C83.3295 16.0151 83.778 15.8953 84.3345 15.8953C84.9375 15.8953 85.4595 16.0461 85.9 16.3472C86.3405 16.6484 86.5915 17.0539 86.6535 17.5633H89.135C89.042 16.8067 88.7755 16.1465 88.335 15.5827C87.8945 15.0188 87.33 14.5864 86.642 14.2852C85.954 13.9841 85.1845 13.8333 84.3345 13.8333C83.4845 13.8333 82.703 13.9836 82.0385 14.2852C81.3735 14.5864 80.8595 14.9919 80.496 15.5013C80.1325 16.0107 79.951 16.5825 79.951 17.2157C79.951 18.2504 80.256 19.034 80.867 19.5669C81.4775 20.0997 82.2935 20.4817 83.314 20.7135L85.3085 21.1769C85.7875 21.2853 86.155 21.4516 86.41 21.6748C86.665 21.899 86.7925 22.2042 86.7925 22.5897C86.7925 23.0067 86.5875 23.3543 86.178 23.6319C85.768 23.9101 85.2305 24.0489 84.566 24.0489C83.824 24.0489 83.2015 23.8402 82.699 23.4237C82.1965 23.0067 81.9295 22.5203 81.899 21.9645H79.4175C79.4485 22.783 79.6845 23.5166 80.125 24.1653C80.5655 24.814 81.1685 25.3199 81.934 25.6825C82.6995 26.045 83.5765 26.2268 84.5665 26.2268C85.5565 26.2268 86.3445 26.0645 87.0715 25.7404C87.798 25.4163 88.3625 24.9723 88.7645 24.4085C89.1665 23.8452 89.3675 23.2154 89.3675 22.5208C89.3675 21.4086 89.066 20.5946 88.463 20.0767L88.4625 20.0762Z" fill="#242424"></path>
    <path d="M94.7479 9.94848H92.2199V14.0186H90.0859V16.1495H92.2199V22.4039C92.2199 23.6549 92.5754 24.6048 93.2869 25.253C93.9979 25.9017 94.9719 26.2258 96.2094 26.2258C96.7039 26.2258 97.1909 26.1639 97.6704 26.0405V23.8397C97.2374 23.9635 96.8354 24.025 96.4644 24.025C95.9384 24.025 95.5209 23.8667 95.2119 23.55C94.9024 23.2339 94.7479 22.782 94.7479 22.1947V16.1485H97.6704V14.0176H94.7479V9.94748V9.94848Z" fill="white"></path>
    <path d="M94.7479 9.94848H92.2199V14.0186H90.0859V16.1495H92.2199V22.4039C92.2199 23.6549 92.5754 24.6048 93.2869 25.253C93.9979 25.9017 94.9719 26.2258 96.2094 26.2258C96.7039 26.2258 97.1909 26.1639 97.6704 26.0405V23.8397C97.2374 23.9635 96.8354 24.025 96.4644 24.025C95.9384 24.025 95.5209 23.8667 95.2119 23.55C94.9024 23.2339 94.7479 22.782 94.7479 22.1947V16.1485H97.6704V14.0176H94.7479V9.94748V9.94848Z" fill="#242424"></path>
    <path d="M107.434 14.6328C106.568 14.1 105.54 13.8338 104.35 13.8338C103.159 13.8338 102.077 14.1154 101.195 14.6793C100.314 15.2431 99.6488 15.9962 99.2008 16.938C98.7523 17.8804 98.5283 18.9072 98.5283 20.0188C98.5283 21.1305 98.7638 22.1577 99.2358 23.0996C99.7073 24.042 100.391 24.7985 101.288 25.3698C102.185 25.9417 103.244 26.2268 104.466 26.2268C105.424 26.2268 106.294 26.068 107.075 25.7519C107.855 25.4358 108.497 24.9683 109 24.3506C109.502 23.7328 109.823 22.9992 109.962 22.1497H107.481C107.342 22.752 107.005 23.2234 106.472 23.563C105.938 23.9026 105.292 24.0724 104.535 24.0724C103.453 24.0724 102.595 23.7099 101.961 22.9837C101.438 22.386 101.135 21.5964 101.043 20.6211H109.985C110.016 20.2351 110.032 19.8955 110.032 19.6018C110.047 18.5825 109.835 17.6327 109.394 16.7528C108.954 15.8723 108.3 15.1657 107.434 14.6333V14.6328ZM101.14 18.6285C101.204 18.3189 101.291 18.0282 101.404 17.7595C101.667 17.1343 102.05 16.6559 102.552 16.3233C103.055 15.9912 103.654 15.8254 104.35 15.8254C104.937 15.8254 105.447 15.9452 105.88 16.1844C106.313 16.4242 106.649 16.7558 106.889 17.1802C107.129 17.6052 107.272 18.0876 107.318 18.628H101.14V18.6285Z" fill="white"></path>
    <path d="M107.434 14.6328C106.568 14.1 105.54 13.8338 104.35 13.8338C103.159 13.8338 102.077 14.1154 101.195 14.6793C100.314 15.2431 99.6488 15.9962 99.2008 16.938C98.7523 17.8804 98.5283 18.9072 98.5283 20.0188C98.5283 21.1305 98.7638 22.1577 99.2358 23.0996C99.7073 24.042 100.391 24.7985 101.288 25.3698C102.185 25.9417 103.244 26.2268 104.466 26.2268C105.424 26.2268 106.294 26.068 107.075 25.7519C107.855 25.4358 108.497 24.9683 109 24.3506C109.502 23.7328 109.823 22.9992 109.962 22.1497H107.481C107.342 22.752 107.005 23.2234 106.472 23.563C105.938 23.9026 105.292 24.0724 104.535 24.0724C103.453 24.0724 102.595 23.7099 101.961 22.9837C101.438 22.386 101.135 21.5964 101.043 20.6211H109.985C110.016 20.2351 110.032 19.8955 110.032 19.6018C110.047 18.5825 109.835 17.6327 109.394 16.7528C108.954 15.8723 108.3 15.1657 107.434 14.6333V14.6328ZM101.14 18.6285C101.204 18.3189 101.291 18.0282 101.404 17.7595C101.667 17.1343 102.05 16.6559 102.552 16.3233C103.055 15.9912 103.654 15.8254 104.35 15.8254C104.937 15.8254 105.447 15.9452 105.88 16.1844C106.313 16.4242 106.649 16.7558 106.889 17.1802C107.129 17.6052 107.272 18.0876 107.318 18.628H101.14V18.6285Z" fill="#242424"></path>
    <path d="M120.863 9.94848V15.5477C120.492 15.0383 119.977 14.6253 119.32 14.3082C118.663 13.9921 117.956 13.8333 117.198 13.8333C116.039 13.8333 115.03 14.096 114.172 14.6208C113.314 15.1462 112.653 15.8758 112.189 16.8102C111.725 17.7446 111.493 18.8138 111.493 20.0188C111.493 21.2239 111.721 22.2971 112.177 23.2389C112.633 24.1813 113.294 24.9149 114.16 25.4398C115.025 25.9651 116.054 26.2273 117.244 26.2273C118.048 26.2273 118.783 26.061 119.448 25.7294C120.112 25.3973 120.584 24.9848 120.863 24.4899V26.042H123.391V9.94848H120.863ZM120.608 22.1263C120.314 22.7285 119.904 23.196 119.378 23.5276C118.853 23.8597 118.249 24.0255 117.569 24.0255C116.889 24.0255 116.262 23.8597 115.737 23.5276C115.211 23.1955 114.805 22.7245 114.519 22.1143C114.233 21.5045 114.09 20.8054 114.09 20.0178C114.09 19.2303 114.233 18.5351 114.519 17.9328C114.805 17.3306 115.211 16.8636 115.737 16.5315C116.262 16.1994 116.873 16.0336 117.569 16.0336C118.265 16.0336 118.853 16.1999 119.378 16.5315C119.904 16.8636 120.314 17.3306 120.608 17.9328C120.901 18.5351 121.048 19.2303 121.048 20.0178C121.048 20.8054 120.901 21.5235 120.608 22.1258V22.1263Z" fill="white"></path>
    <path d="M120.863 9.94848V15.5477C120.492 15.0383 119.977 14.6253 119.32 14.3082C118.663 13.9921 117.956 13.8333 117.198 13.8333C116.039 13.8333 115.03 14.096 114.172 14.6208C113.314 15.1462 112.653 15.8758 112.189 16.8102C111.725 17.7446 111.493 18.8138 111.493 20.0188C111.493 21.2239 111.721 22.2971 112.177 23.2389C112.633 24.1813 113.294 24.9149 114.16 25.4398C115.025 25.9651 116.054 26.2273 117.244 26.2273C118.048 26.2273 118.783 26.061 119.448 25.7294C120.112 25.3973 120.584 24.9848 120.863 24.4899V26.042H123.391V9.94848H120.863ZM120.608 22.1263C120.314 22.7285 119.904 23.196 119.378 23.5276C118.853 23.8597 118.249 24.0255 117.569 24.0255C116.889 24.0255 116.262 23.8597 115.737 23.5276C115.211 23.1955 114.805 22.7245 114.519 22.1143C114.233 21.5045 114.09 20.8054 114.09 20.0178C114.09 19.2303 114.233 18.5351 114.519 17.9328C114.805 17.3306 115.211 16.8636 115.737 16.5315C116.262 16.1994 116.873 16.0336 117.569 16.0336C118.265 16.0336 118.853 16.1999 119.378 16.5315C119.904 16.8636 120.314 17.3306 120.608 17.9328C120.901 18.5351 121.048 19.2303 121.048 20.0178C121.048 20.8054 120.901 21.5235 120.608 22.1258V22.1263Z" fill="#242424"></path>
    <path d="M136.609 25.7863C135.983 25.4932 135.492 25.0837 135.136 24.5583C134.78 24.0335 134.603 23.4387 134.603 22.7745C134.603 21.7402 134.958 20.9062 135.67 20.2725C136.381 19.6393 137.401 19.2303 138.731 19.0445L141.306 18.7204C141.646 18.659 141.905 18.5466 142.083 18.3848C142.26 18.2225 142.349 17.9948 142.349 17.7016C142.349 17.1767 142.121 16.7368 141.665 16.3812C141.209 16.0261 140.594 15.8484 139.821 15.8484C139.048 15.8484 138.468 16.0336 137.989 16.4042C137.51 16.7747 137.239 17.2846 137.177 17.9328H134.696C134.789 17.0988 135.055 16.3732 135.496 15.7555C135.936 15.1382 136.528 14.6633 137.27 14.3307C138.012 13.9986 138.862 13.8328 139.821 13.8328C140.841 13.8328 141.734 14.0146 142.5 14.3771C143.265 14.7402 143.853 15.2576 144.262 15.9293C144.672 16.6009 144.877 17.385 144.877 18.2804V23.0521C144.877 23.3922 144.942 23.6354 145.074 23.7818C145.205 23.9286 145.402 24.002 145.665 24.002C145.805 24.002 145.936 23.9865 146.06 23.9556V26.0405C145.642 26.1334 145.248 26.1794 144.877 26.1794C144.242 26.1794 143.725 26.0211 143.323 25.7044C142.921 25.3883 142.697 24.9134 142.65 24.2797C142.356 24.8819 141.862 25.3569 141.166 25.7044C140.47 26.052 139.666 26.2258 138.754 26.2258C137.95 26.2258 137.235 26.079 136.608 25.7858L136.609 25.7863ZM141.549 23.2964C142.129 22.6556 142.419 21.8101 142.419 20.7599V20.3199L139.149 20.8528C138.484 20.9452 137.982 21.1464 137.642 21.4551C137.301 21.7642 137.132 22.1732 137.132 22.6826C137.132 23.146 137.317 23.5246 137.688 23.8177C138.059 24.1114 138.546 24.2577 139.149 24.2577C140.17 24.2577 140.97 23.9371 141.55 23.2964H141.549Z" fill="white"></path>
    <path d="M136.609 25.7863C135.983 25.4932 135.492 25.0837 135.136 24.5583C134.78 24.0335 134.603 23.4387 134.603 22.7745C134.603 21.7402 134.958 20.9062 135.67 20.2725C136.381 19.6393 137.401 19.2303 138.731 19.0445L141.306 18.7204C141.646 18.659 141.905 18.5466 142.083 18.3848C142.26 18.2225 142.349 17.9948 142.349 17.7016C142.349 17.1767 142.121 16.7368 141.665 16.3812C141.209 16.0261 140.594 15.8484 139.821 15.8484C139.048 15.8484 138.468 16.0336 137.989 16.4042C137.51 16.7747 137.239 17.2846 137.177 17.9328H134.696C134.789 17.0988 135.055 16.3732 135.496 15.7555C135.936 15.1382 136.528 14.6633 137.27 14.3307C138.012 13.9986 138.862 13.8328 139.821 13.8328C140.841 13.8328 141.734 14.0146 142.5 14.3771C143.265 14.7402 143.853 15.2576 144.262 15.9293C144.672 16.6009 144.877 17.385 144.877 18.2804V23.0521C144.877 23.3922 144.942 23.6354 145.074 23.7818C145.205 23.9286 145.402 24.002 145.665 24.002C145.805 24.002 145.936 23.9865 146.06 23.9556V26.0405C145.642 26.1334 145.248 26.1794 144.877 26.1794C144.242 26.1794 143.725 26.0211 143.323 25.7044C142.921 25.3883 142.697 24.9134 142.65 24.2797C142.356 24.8819 141.862 25.3569 141.166 25.7044C140.47 26.052 139.666 26.2258 138.754 26.2258C137.95 26.2258 137.235 26.079 136.608 25.7858L136.609 25.7863ZM141.549 23.2964C142.129 22.6556 142.419 21.8101 142.419 20.7599V20.3199L139.149 20.8528C138.484 20.9452 137.982 21.1464 137.642 21.4551C137.301 21.7642 137.132 22.1732 137.132 22.6826C137.132 23.146 137.317 23.5246 137.688 23.8177C138.059 24.1114 138.546 24.2577 139.149 24.2577C140.17 24.2577 140.97 23.9371 141.55 23.2964H141.549Z" fill="#242424"></path>
    <path d="M147.729 14.0186H150.257V26.041H147.729V14.0186Z" fill="white"></path>
    <path d="M147.729 14.0186H150.257V26.041H147.729V14.0186Z" fill="#242424"></path>
  </g>
  <defs>
    <clipPath id="clip0_1318_2257">
      <rect width="150" height="36" fill="white" transform="translate(0.5)"></rect>
    </clipPath>
  </defs>
</svg>
