<svg width="201" height="39" viewBox="0 0 201 39" fill="none" xmlns="http://www.w3.org/2000/svg">
<g clip-path="url(#clip0_2_121)">
<path d="M50.2183 30.4169V9.24829H54.6563L60.4034 21.2853L66.2464 9.24829H70.6206V30.4169H67.3319V14.2291L61.9999 25.1487H58.8709L53.5388 14.1653V30.4169H50.2502H50.2183Z" fill="white"/>
<path d="M79.4326 30.7044C78.1555 30.7044 77.0699 30.4809 76.144 30.0339C75.218 29.5869 74.4518 28.9802 73.8451 28.2459C73.2385 27.4796 72.7915 26.6494 72.5041 25.7235C72.2168 24.7976 72.0571 23.8397 72.0571 22.85C72.0571 21.8602 72.1848 20.9662 72.4722 20.0083C72.7596 19.0824 73.2066 18.2203 73.7813 17.454C74.356 16.6878 75.1223 16.0811 76.0482 15.6341C76.9741 15.1871 78.0278 14.9636 79.273 14.9636C80.5182 14.9636 81.7953 15.251 82.817 15.8576C83.8387 16.4643 84.637 17.3583 85.2117 18.5077C85.7864 19.689 86.0737 21.1258 86.0737 22.8819V23.7759H75.3138C75.3777 24.9253 75.7928 25.947 76.4952 26.7772C77.1976 27.6073 78.1874 28.0224 79.4007 28.0224C80.614 28.0224 80.6778 27.8947 81.1567 27.6712C81.6037 27.4477 81.955 27.1603 82.2104 26.841C82.4658 26.5217 82.6893 26.1705 82.8809 25.6916H85.9141C85.7225 26.3621 85.499 26.9368 85.2436 27.4477C84.9882 27.9585 84.605 28.4374 84.158 28.9483C83.6791 29.4592 83.0405 29.8742 82.2742 30.1935C81.508 30.5128 80.5501 30.7044 79.4007 30.7044H79.4326ZM75.3777 21.477H82.9447C82.8809 20.136 82.4658 19.1463 81.7634 18.5396C81.061 17.901 80.1989 17.5818 79.273 17.5818C78.347 17.5818 77.3253 17.933 76.6229 18.6354C75.9205 19.3378 75.5054 20.2637 75.4096 21.477H75.3777Z" fill="white"/>
<path d="M93.1301 30.7044C91.9169 30.7044 90.959 30.5447 90.1608 30.1935C89.3945 29.8742 88.7879 29.4592 88.3089 28.9483C87.8619 28.4694 87.5107 27.9585 87.2872 27.4796C87.0637 26.9687 86.9041 26.394 86.7764 25.7235H89.9373C90.065 26.2024 90.2566 26.5856 90.4481 26.9049C90.6716 27.2242 90.9909 27.4796 91.406 27.735C91.853 27.9585 92.4277 28.0862 93.1621 28.0862C93.8964 28.0862 94.6946 27.8947 95.1097 27.4796C95.5248 27.0645 95.7483 26.6175 95.7483 26.1067C95.7483 25.5958 95.5567 25.2127 95.2055 24.9253C94.8543 24.638 94.3434 24.4145 93.6729 24.2548L91.6295 23.8078C90.8313 23.6162 90.0969 23.3608 89.3945 23.0096C88.6921 22.6903 88.1493 22.2433 87.7023 21.6686C87.2872 21.0939 87.0637 20.3915 87.0637 19.4975C87.0637 18.1884 87.5746 17.1028 88.5644 16.2408C89.5541 15.3787 90.8951 14.9636 92.5554 14.9636C94.2157 14.9636 94.535 15.1233 95.2693 15.4106C95.9718 15.7299 96.5465 16.0811 96.9615 16.5281C97.3766 16.9751 97.6959 17.4221 97.9194 17.8691C98.1429 18.3161 98.3025 18.827 98.4303 19.4336H95.3651C95.2374 19.0505 95.1097 18.7312 94.9181 18.4758C94.7266 18.2203 94.4392 17.9968 94.088 17.8053C93.7048 17.6137 93.2259 17.5179 92.5874 17.5179C91.9488 17.5179 91.1186 17.7095 90.7355 18.0926C90.3524 18.4758 90.1608 18.8908 90.1608 19.3059C90.1608 19.721 90.3524 20.136 90.7036 20.3915C91.0867 20.6469 91.5656 20.8385 92.1723 20.9662L94.2157 21.4132C95.5567 21.7325 96.6742 22.2114 97.5682 22.9138C98.4303 23.6162 98.8773 24.606 98.8773 25.9151C98.8773 27.2242 98.6538 27.5754 98.2068 28.3097C97.7598 29.0122 97.1212 29.5869 96.2591 30.0339C95.3971 30.4489 94.3753 30.6724 93.1301 30.6724V30.7044Z" fill="white"/>
<path d="M100.058 30.4171V9.21655H103.315V17.486H103.475C103.603 17.2306 103.826 16.8794 104.145 16.4962C104.465 16.1131 104.912 15.7619 105.518 15.4426C106.093 15.1233 106.827 14.9956 107.721 14.9956C108.615 14.9956 109.797 15.251 110.563 15.7619C111.329 16.2727 111.904 16.9752 112.287 17.8053C112.67 18.6674 112.862 19.5933 112.862 20.6469V30.4171H109.605V20.9982C109.605 20.0722 109.35 19.306 108.839 18.6674C108.328 18.0288 107.594 17.7095 106.604 17.7095C105.614 17.7095 105.199 17.9011 104.688 18.2842C104.209 18.6674 103.858 19.1782 103.603 19.7849C103.379 20.3915 103.251 21.062 103.251 21.7644V30.3532H99.9946L100.058 30.4171Z" fill="white"/>
<path d="M114.714 30.4169V9.24829H121.962C123.654 9.24829 125.154 9.53565 126.432 10.1423C127.709 10.7489 128.762 11.5471 129.624 12.5689C130.487 13.5906 131.125 14.7081 131.54 15.9852C131.955 17.2304 132.179 18.5395 132.179 19.8485C132.179 21.1576 131.955 22.4348 131.54 23.7119C131.125 24.9571 130.487 26.1065 129.624 27.1282C128.762 28.15 127.709 28.9482 126.432 29.5548C125.154 30.1614 123.654 30.4488 121.962 30.4488H114.714V30.4169ZM121.802 12.1538H118.066V27.4475H121.802C122.983 27.4475 124.005 27.224 124.899 26.809C125.761 26.3939 126.495 25.7872 127.07 25.0529C127.645 24.3185 128.06 23.4884 128.379 22.5944C128.667 21.7004 128.826 20.7745 128.826 19.8166C128.826 18.8588 128.667 17.9328 128.379 17.0069C128.092 16.081 127.645 15.2828 127.07 14.5484C126.495 13.8141 125.761 13.2394 124.899 12.7924C124.037 12.3454 122.983 12.1219 121.802 12.1219V12.1538Z" fill="white"/>
<path d="M140.32 30.7044C139.043 30.7044 137.958 30.4809 137.032 30.0339C136.106 29.5869 135.339 28.9802 134.733 28.2459C134.126 27.4796 133.679 26.6494 133.392 25.7235C133.104 24.7976 132.945 23.8397 132.945 22.85C132.945 21.8602 133.073 20.9662 133.36 20.0083C133.647 19.0824 134.094 18.2203 134.669 17.454C135.244 16.6878 136.01 16.0811 136.936 15.6341C137.862 15.1871 138.915 14.9636 140.161 14.9636C141.406 14.9636 142.683 15.251 143.705 15.8576C144.726 16.4643 145.525 17.3583 146.099 18.5077C146.674 19.689 146.961 21.1258 146.961 22.8819V23.7759H136.202C136.265 24.9253 136.68 25.947 137.383 26.7772C138.085 27.6073 139.075 28.0224 140.288 28.0224C141.502 28.0224 141.566 27.8947 142.044 27.6712C142.491 27.4477 142.843 27.1603 143.098 26.841C143.354 26.5217 143.577 26.1705 143.769 25.6916H146.802C146.61 26.3621 146.387 26.9368 146.131 27.4477C145.876 27.9585 145.493 28.4374 145.046 28.9483C144.567 29.4592 143.928 29.8742 143.162 30.1935C142.396 30.5128 141.438 30.7044 140.288 30.7044H140.32ZM136.265 21.477H143.832C143.769 20.136 143.354 19.1463 142.651 18.5396C141.949 17.901 141.087 17.5818 140.161 17.5818C139.235 17.5818 138.213 17.933 137.511 18.6354C136.808 19.3378 136.393 20.2637 136.297 21.477H136.265Z" fill="white"/>
<path d="M149.867 30.4808V18.7631H147.408V16.145H149.867V14.5166C149.867 13.9419 149.931 13.3352 150.09 12.7286C150.25 12.122 150.505 11.5472 150.856 11.0364C151.208 10.5255 151.719 10.0785 152.357 9.79118C152.996 9.4719 153.762 9.31226 154.72 9.31226C155.678 9.31226 155.901 9.40804 156.636 9.56768V12.0262C156.093 11.8985 155.646 11.8665 155.295 11.8665C154.464 11.8665 153.89 12.122 153.57 12.6328C153.251 13.1437 153.123 13.7822 153.123 14.5485V16.1769H156.508V18.795H153.123V30.5128H149.867V30.4808Z" fill="white"/>
<path d="M163.437 30.7044C162.159 30.7044 161.074 30.4809 160.148 30.0339C159.222 29.5869 158.456 28.9802 157.849 28.2459C157.242 27.4796 156.795 26.6494 156.508 25.7235C156.221 24.7976 156.061 23.8397 156.061 22.85C156.061 21.8602 156.189 20.9662 156.476 20.0083C156.763 19.0824 157.21 18.2203 157.785 17.454C158.36 16.6878 159.126 16.0811 160.052 15.6341C160.978 15.1871 162.032 14.9636 163.277 14.9636C164.522 14.9636 165.799 15.251 166.821 15.8576C167.843 16.4643 168.641 17.3583 169.216 18.5077C169.79 19.689 170.078 21.1258 170.078 22.8819V23.7759H159.318C159.382 24.9253 159.797 25.947 160.499 26.7772C161.202 27.6073 162.191 28.0224 163.405 28.0224C164.618 28.0224 164.682 27.8947 165.161 27.6712C165.608 27.4477 165.959 27.1603 166.214 26.841C166.47 26.5217 166.693 26.1705 166.885 25.6916H169.918C169.726 26.3621 169.503 26.9368 169.247 27.4477C168.992 27.9585 168.609 28.4374 168.162 28.9483C167.683 29.4592 167.044 29.8742 166.278 30.1935C165.512 30.5128 164.554 30.7044 163.405 30.7044H163.437ZM159.382 21.477H166.949C166.885 20.136 166.47 19.1463 165.767 18.5396C165.065 17.901 164.203 17.5818 163.277 17.5818C162.351 17.5818 161.329 17.933 160.627 18.6354C159.924 19.3378 159.509 20.2637 159.414 21.477H159.382Z" fill="white"/>
<path d="M171.259 30.417V15.251H174.516V17.454H174.676C174.803 17.1986 175.027 16.8474 175.346 16.4643C175.665 16.0811 176.112 15.7299 176.719 15.4106C177.294 15.0913 178.028 14.9636 178.922 14.9636C179.816 14.9636 180.997 15.2191 181.764 15.7299C182.53 16.2408 183.105 16.9432 183.488 17.7733C183.871 18.6354 184.062 19.5613 184.062 20.615V30.3851H180.806V20.9662C180.806 20.0403 180.55 19.274 180.039 18.6354C179.529 17.9968 178.794 17.6775 177.804 17.6775C176.815 17.6775 176.4 17.8691 175.889 18.2523C175.41 18.6354 175.059 19.1463 174.803 19.7529C174.58 20.3595 174.452 21.03 174.452 21.7325V30.3212H171.195L171.259 30.417Z" fill="white"/>
<path d="M192.076 30.7043C190.927 30.7043 189.937 30.4808 189.075 30.0338C188.213 29.5868 187.511 28.9802 186.936 28.2458C186.361 27.4795 185.946 26.6494 185.659 25.7235C185.371 24.7975 185.244 23.8397 185.244 22.8499C185.244 21.8601 185.371 20.9342 185.659 19.9763C185.946 19.0504 186.361 18.1883 186.936 17.454C187.511 16.6877 188.213 16.113 189.075 15.666C189.937 15.219 190.927 14.9955 192.076 14.9955C193.226 14.9955 193.832 15.1551 194.471 15.4425C195.11 15.7618 195.62 16.113 196.004 16.4961C196.387 16.9112 196.674 17.2305 196.834 17.5178H196.993V9.15259H200.25V30.417H196.993V28.15H196.834C196.674 28.4374 196.387 28.7886 196.004 29.1717C195.62 29.5868 195.11 29.938 194.471 30.2254C193.832 30.5447 193.034 30.6724 192.076 30.6724V30.7043ZM192.811 27.9904C193.737 27.9904 194.535 27.735 195.141 27.2241C195.748 26.7133 196.227 26.0747 196.546 25.3084C196.866 24.5421 197.025 23.712 197.025 22.8499C197.025 21.9878 196.866 21.1577 196.546 20.3914C196.227 19.6251 195.78 18.9546 195.141 18.4757C194.535 17.9648 193.737 17.7094 192.811 17.7094C191.885 17.7094 191.087 17.9648 190.48 18.4757C189.841 18.9866 189.394 19.6251 189.075 20.3914C188.756 21.1577 188.596 21.9878 188.596 22.8499C188.596 23.712 188.756 24.5421 189.075 25.3084C189.394 26.0747 189.873 26.7452 190.48 27.2241C191.118 27.735 191.885 27.9904 192.811 27.9904Z" fill="white"/>
<path d="M7.84898 26.0109L7.56162 26.0428L0.409642 19.9764L0.25 20.0722V32.3327L7.72126 38.5587L38.2449 12.8244V0.5L7.84898 26.0109Z" fill="#F1552C"/>
<path d="M24.0366 32.3966L31.444 38.5908L38.2448 32.8756V20.4873L24.0366 32.3966Z" fill="#F1552C"/>
<path d="M14.7136 12.4413L0.25 0.5V12.8244L7.37005 18.6034L14.7136 12.4413Z" fill="#F1552C"/>
</g>
<defs>
<clipPath id="clip0_2_121">
<rect width="200" height="38.0907" fill="white" transform="translate(0.25 0.5)"/>
</clipPath>
</defs>
</svg>
